<svg xmlns="http://www.w3.org/2000/svg" width="271.951" height="349.419" viewBox="0 0 271.951 349.419">
  <g id="_118-macbook" data-name="118-macbook" transform="translate(-168 -131.904)">
    <g id="Group_2" data-name="Group 2" opacity="0.33">
      <rect id="Rectangle_6" data-name="Rectangle 6" width="260" height="45.478" rx="14" transform="translate(177.95 261.845)" fill="#4e4e4e" stroke="#000" stroke-linecap="round" stroke-linejoin="round" stroke-width="1"/>
      <rect id="Rectangle_7" data-name="Rectangle 7" width="260" height="45.478" rx="14" transform="translate(177.95 261.845)" fill="#4e4e4e"/>
      <path id="Path_2" data-name="Path 2" d="M191.95,261.845h232a14,14,0,0,1,14,14v20.438a8.549,8.549,0,0,1-8.549,8.549H186.5a8.549,8.549,0,0,1-8.549-8.549V275.845a14,14,0,0,1,14-14Z" fill="#4e4e4e" opacity="0.17"/>
      <rect id="Rectangle_8" data-name="Rectangle 8" width="260" height="45.478" rx="14" transform="translate(177.95 261.845)" fill="#4e4e4e" stroke="#46505c" stroke-linecap="round" stroke-linejoin="round" stroke-width="4"/>
      <rect id="Rectangle_9" data-name="Rectangle 9" width="34.941" height="224" transform="translate(419.95 266.969) rotate(90)" fill="#4e4e4e"/>
      <rect id="Rectangle_10" data-name="Rectangle 10" width="34.941" height="224" transform="translate(419.95 266.969) rotate(90)" fill="#4e4e4e" stroke="#46505c" stroke-linecap="round" stroke-linejoin="round" stroke-width="1"/>
      <rect id="Rectangle_11" data-name="Rectangle 11" width="260" height="172" rx="14" transform="translate(177.951 307.323)" fill="#4e4e4e"/>
      <rect id="Rectangle_12" data-name="Rectangle 12" width="164" height="252" rx="10" transform="translate(433.951 311.323) rotate(90)" fill="#4e4e4e" stroke="#e6f3ff" stroke-miterlimit="10" stroke-width="2"/>
      <path id="Path_3" data-name="Path 3" d="M291.9,471.5H324a4,4,0,0,1,4,4v3.82H287.9V475.5A4,4,0,0,1,291.9,471.5Z" fill="#4e4e4e"/>
      <rect id="Rectangle_13" data-name="Rectangle 13" width="260" height="172" rx="14" transform="translate(177.951 307.323)" fill="#4e4e4e" stroke="#46505c" stroke-linecap="round" stroke-linejoin="round" stroke-width="4"/>
      <rect id="Rectangle_14" data-name="Rectangle 14" width="230" height="92" rx="3" transform="translate(192.95 320.743)" fill="#4e4e4e"/>
      <rect id="Rectangle_15" data-name="Rectangle 15" width="14" height="14" rx="1" transform="translate(224.035 390.243)" fill="#4e4e4e" stroke="#626c84" stroke-linecap="round" stroke-linejoin="round" stroke-width="1"/>
      <rect id="Rectangle_16" data-name="Rectangle 16" width="14" height="14" rx="1" transform="translate(202.396 390.243)" fill="#4e4e4e" stroke="#626c84" stroke-linecap="round" stroke-linejoin="round" stroke-width="1"/>
      <rect id="Rectangle_17" data-name="Rectangle 17" width="100.554" height="14" rx="1" transform="translate(245.673 390.243)" fill="#4e4e4e" stroke="#626c84" stroke-linecap="round" stroke-linejoin="round" stroke-width="1"/>
      <rect id="Rectangle_18" data-name="Rectangle 18" width="14" height="14" rx="1" transform="translate(353.866 390.243)" fill="#4e4e4e" stroke="#626c84" stroke-linecap="round" stroke-linejoin="round" stroke-width="1"/>
      <rect id="Rectangle_19" data-name="Rectangle 19" width="10" height="6.125" rx="1" transform="translate(389.505 398.118)" fill="#4e4e4e" stroke="#626c84" stroke-linecap="round" stroke-linejoin="round" stroke-width="1"/>
      <rect id="Rectangle_20" data-name="Rectangle 20" width="10" height="6.125" rx="1" transform="translate(389.505 390.243)" fill="#4e4e4e" stroke="#626c84" stroke-linecap="round" stroke-linejoin="round" stroke-width="1"/>
      <rect id="Rectangle_21" data-name="Rectangle 21" width="10" height="6.125" rx="1" transform="translate(403.505 398.118)" fill="#4e4e4e" stroke="#626c84" stroke-linecap="round" stroke-linejoin="round" stroke-width="1"/>
      <rect id="Rectangle_22" data-name="Rectangle 22" width="10" height="6.125" rx="1" transform="translate(375.505 398.118)" fill="#4e4e4e" stroke="#626c84" stroke-linecap="round" stroke-linejoin="round" stroke-width="1"/>
      <rect id="Rectangle_23" data-name="Rectangle 23" width="33.639" height="14" rx="1" transform="translate(202.396 370.323)" fill="#4e4e4e" stroke="#626c84" stroke-linecap="round" stroke-linejoin="round" stroke-width="1"/>
      <rect id="Rectangle_24" data-name="Rectangle 24" width="14" height="14" rx="1" transform="translate(243.854 370.323)" fill="#4e4e4e" stroke="#626c84" stroke-linecap="round" stroke-linejoin="round" stroke-width="1"/>
      <rect id="Rectangle_25" data-name="Rectangle 25" width="14" height="14" rx="1" transform="translate(265.493 370.323)" fill="#4e4e4e" stroke="#626c84" stroke-linecap="round" stroke-linejoin="round" stroke-width="1"/>
      <rect id="Rectangle_26" data-name="Rectangle 26" width="14" height="14" rx="1" transform="translate(287.131 370.323)" fill="#4e4e4e" stroke="#626c84" stroke-linecap="round" stroke-linejoin="round" stroke-width="1"/>
      <rect id="Rectangle_27" data-name="Rectangle 27" width="14" height="14" rx="1" transform="translate(308.77 370.323)" fill="#4e4e4e" stroke="#626c84" stroke-linecap="round" stroke-linejoin="round" stroke-width="1"/>
      <rect id="Rectangle_28" data-name="Rectangle 28" width="14" height="14" rx="1" transform="translate(330.408 370.323)" fill="#4e4e4e" stroke="#626c84" stroke-linecap="round" stroke-linejoin="round" stroke-width="1"/>
      <rect id="Rectangle_29" data-name="Rectangle 29" width="14" height="14" rx="1" transform="translate(352.047 370.323)" fill="#4e4e4e" stroke="#626c84" stroke-linecap="round" stroke-linejoin="round" stroke-width="1"/>
      <rect id="Rectangle_30" data-name="Rectangle 30" width="38" height="14" rx="1" transform="translate(375.505 370.323)" fill="#4e4e4e" stroke="#626c84" stroke-linecap="round" stroke-linejoin="round" stroke-width="1"/>
      <rect id="Rectangle_31" data-name="Rectangle 31" width="14" height="14" rx="1" transform="translate(236.035 349.843)" fill="#4e4e4e" stroke="#626c84" stroke-linecap="round" stroke-linejoin="round" stroke-width="1"/>
      <rect id="Rectangle_32" data-name="Rectangle 32" width="26" height="14" rx="1" transform="translate(202.396 349.843)" fill="#4e4e4e" stroke="#626c84" stroke-linecap="round" stroke-linejoin="round" stroke-width="1"/>
      <rect id="Rectangle_33" data-name="Rectangle 33" width="14" height="14" rx="1" transform="translate(257.673 349.843)" fill="#4e4e4e" stroke="#626c84" stroke-linecap="round" stroke-linejoin="round" stroke-width="1"/>
      <rect id="Rectangle_34" data-name="Rectangle 34" width="14" height="14" rx="1" transform="translate(279.312 349.843)" fill="#4e4e4e" stroke="#626c84" stroke-linecap="round" stroke-linejoin="round" stroke-width="1"/>
      <rect id="Rectangle_35" data-name="Rectangle 35" width="14" height="14" rx="1" transform="translate(300.95 349.843)" fill="#4e4e4e" stroke="#626c84" stroke-linecap="round" stroke-linejoin="round" stroke-width="1"/>
      <rect id="Rectangle_36" data-name="Rectangle 36" width="14" height="14" rx="1" transform="translate(322.589 349.843)" fill="#4e4e4e" stroke="#626c84" stroke-linecap="round" stroke-linejoin="round" stroke-width="1"/>
      <rect id="Rectangle_37" data-name="Rectangle 37" width="14" height="14" rx="1" transform="translate(344.228 349.843)" fill="#4e4e4e" stroke="#626c84" stroke-linecap="round" stroke-linejoin="round" stroke-width="1"/>
      <rect id="Rectangle_38" data-name="Rectangle 38" width="14" height="14" rx="1" transform="translate(365.866 349.843)" fill="#4e4e4e" stroke="#626c84" stroke-linecap="round" stroke-linejoin="round" stroke-width="1"/>
      <rect id="Rectangle_39" data-name="Rectangle 39" width="26" height="14" rx="1" transform="translate(387.505 349.843)" fill="#4e4e4e" stroke="#626c84" stroke-linecap="round" stroke-linejoin="round" stroke-width="1"/>
      <rect id="Rectangle_40" data-name="Rectangle 40" width="14" height="14" rx="1" transform="translate(224.297 330.243)" fill="#4e4e4e" stroke="#626c84" stroke-linecap="round" stroke-linejoin="round" stroke-width="1"/>
      <rect id="Rectangle_41" data-name="Rectangle 41" width="14" height="14" rx="1" transform="translate(202.396 330.243)" fill="#4e4e4e" stroke="#626c84" stroke-linecap="round" stroke-linejoin="round" stroke-width="1"/>
      <rect id="Rectangle_42" data-name="Rectangle 42" width="14" height="14" rx="1" transform="translate(246.198 330.243)" fill="#4e4e4e" stroke="#626c84" stroke-linecap="round" stroke-linejoin="round" stroke-width="1"/>
      <rect id="Rectangle_43" data-name="Rectangle 43" width="14" height="14" rx="1" transform="translate(268.099 330.243)" fill="#4e4e4e" stroke="#626c84" stroke-linecap="round" stroke-linejoin="round" stroke-width="1"/>
      <rect id="Rectangle_44" data-name="Rectangle 44" width="14" height="14" rx="1" transform="translate(290 330.243)" fill="#4e4e4e" stroke="#626c84" stroke-linecap="round" stroke-linejoin="round" stroke-width="1"/>
      <rect id="Rectangle_45" data-name="Rectangle 45" width="14" height="14" rx="1" transform="translate(311.901 330.243)" fill="#4e4e4e" stroke="#626c84" stroke-linecap="round" stroke-linejoin="round" stroke-width="1"/>
      <rect id="Rectangle_46" data-name="Rectangle 46" width="14" height="14" rx="1" transform="translate(333.802 330.243)" fill="#4e4e4e" stroke="#626c84" stroke-linecap="round" stroke-linejoin="round" stroke-width="1"/>
      <rect id="Rectangle_47" data-name="Rectangle 47" width="14" height="14" rx="1" transform="translate(355.703 330.243)" fill="#4e4e4e" stroke="#626c84" stroke-linecap="round" stroke-linejoin="round" stroke-width="1"/>
      <rect id="Rectangle_48" data-name="Rectangle 48" width="14" height="14" rx="1" transform="translate(377.604 330.243)" fill="#4e4e4e" stroke="#626c84" stroke-linecap="round" stroke-linejoin="round" stroke-width="1"/>
      <rect id="Rectangle_49" data-name="Rectangle 49" width="14" height="14" rx="1" transform="translate(399.505 330.243)" fill="#4e4e4e" stroke="#626c84" stroke-linecap="round" stroke-linejoin="round" stroke-width="1"/>
      <rect id="Rectangle_50" data-name="Rectangle 50" width="14" height="14" rx="1" transform="translate(224.035 390.243)" fill="#4e4e4e"/>
      <rect id="Rectangle_51" data-name="Rectangle 51" width="14" height="14" rx="1" transform="translate(202.396 390.243)" fill="#4e4e4e"/>
      <rect id="Rectangle_52" data-name="Rectangle 52" width="100.554" height="14" rx="1" transform="translate(245.673 390.243)" fill="#4e4e4e"/>
      <rect id="Rectangle_53" data-name="Rectangle 53" width="14" height="14" rx="1" transform="translate(353.866 390.243)" fill="#4e4e4e"/>
      <rect id="Rectangle_54" data-name="Rectangle 54" width="10" height="6.125" rx="1" transform="translate(389.505 398.118)" fill="#4e4e4e"/>
      <rect id="Rectangle_55" data-name="Rectangle 55" width="10" height="6.125" rx="1" transform="translate(389.505 390.243)" fill="#4e4e4e"/>
      <rect id="Rectangle_56" data-name="Rectangle 56" width="10" height="6.125" rx="1" transform="translate(403.505 398.118)" fill="#4e4e4e"/>
      <rect id="Rectangle_57" data-name="Rectangle 57" width="10" height="6.125" rx="1" transform="translate(375.505 398.118)" fill="#4e4e4e"/>
      <rect id="Rectangle_58" data-name="Rectangle 58" width="33.639" height="14" rx="1" transform="translate(202.396 370.323)" fill="#4e4e4e"/>
      <rect id="Rectangle_59" data-name="Rectangle 59" width="14" height="14" rx="1" transform="translate(243.854 370.323)" fill="#4e4e4e"/>
      <rect id="Rectangle_60" data-name="Rectangle 60" width="14" height="14" rx="1" transform="translate(265.493 370.323)" fill="#4e4e4e"/>
      <rect id="Rectangle_61" data-name="Rectangle 61" width="14" height="14" rx="1" transform="translate(287.131 370.323)" fill="#4e4e4e"/>
      <rect id="Rectangle_62" data-name="Rectangle 62" width="14" height="14" rx="1" transform="translate(308.77 370.323)" fill="#4e4e4e"/>
      <rect id="Rectangle_63" data-name="Rectangle 63" width="14" height="14" rx="1" transform="translate(330.408 370.323)" fill="#4e4e4e"/>
      <rect id="Rectangle_64" data-name="Rectangle 64" width="14" height="14" rx="1" transform="translate(352.047 370.323)" fill="#4e4e4e"/>
      <rect id="Rectangle_65" data-name="Rectangle 65" width="38" height="14" rx="1" transform="translate(375.505 370.323)" fill="#4e4e4e"/>
      <rect id="Rectangle_66" data-name="Rectangle 66" width="14" height="14" rx="1" transform="translate(236.035 349.843)" fill="#4e4e4e"/>
      <rect id="Rectangle_67" data-name="Rectangle 67" width="26" height="14" rx="1" transform="translate(202.396 349.843)" fill="#4e4e4e"/>
      <rect id="Rectangle_68" data-name="Rectangle 68" width="14" height="14" rx="1" transform="translate(257.673 349.843)" fill="#4e4e4e"/>
      <rect id="Rectangle_69" data-name="Rectangle 69" width="14" height="14" rx="1" transform="translate(279.312 349.843)" fill="#4e4e4e"/>
      <rect id="Rectangle_70" data-name="Rectangle 70" width="14" height="14" rx="1" transform="translate(300.95 349.843)" fill="#4e4e4e"/>
      <rect id="Rectangle_71" data-name="Rectangle 71" width="14" height="14" rx="1" transform="translate(322.589 349.843)" fill="#4e4e4e"/>
      <rect id="Rectangle_72" data-name="Rectangle 72" width="14" height="14" rx="1" transform="translate(344.228 349.843)" fill="#4e4e4e"/>
      <rect id="Rectangle_73" data-name="Rectangle 73" width="14" height="14" rx="1" transform="translate(365.866 349.843)" fill="#4e4e4e"/>
      <rect id="Rectangle_74" data-name="Rectangle 74" width="26" height="14" rx="1" transform="translate(387.505 349.843)" fill="#4e4e4e"/>
      <rect id="Rectangle_75" data-name="Rectangle 75" width="14" height="14" rx="1" transform="translate(224.297 330.243)" fill="#4e4e4e"/>
      <rect id="Rectangle_76" data-name="Rectangle 76" width="14" height="14" rx="1" transform="translate(202.396 330.243)" fill="#4e4e4e"/>
      <rect id="Rectangle_77" data-name="Rectangle 77" width="14" height="14" rx="1" transform="translate(246.198 330.243)" fill="#4e4e4e"/>
      <rect id="Rectangle_78" data-name="Rectangle 78" width="14" height="14" rx="1" transform="translate(268.099 330.243)" fill="#4e4e4e"/>
      <rect id="Rectangle_79" data-name="Rectangle 79" width="14" height="14" rx="1" transform="translate(290 330.243)" fill="#4e4e4e"/>
      <rect id="Rectangle_80" data-name="Rectangle 80" width="14" height="14" rx="1" transform="translate(311.901 330.243)" fill="#4e4e4e"/>
      <rect id="Rectangle_81" data-name="Rectangle 81" width="14" height="14" rx="1" transform="translate(333.802 330.243)" fill="#4e4e4e"/>
      <rect id="Rectangle_82" data-name="Rectangle 82" width="14" height="14" rx="1" transform="translate(355.703 330.243)" fill="#4e4e4e"/>
      <rect id="Rectangle_83" data-name="Rectangle 83" width="14" height="14" rx="1" transform="translate(377.604 330.243)" fill="#4e4e4e"/>
      <rect id="Rectangle_84" data-name="Rectangle 84" width="14" height="14" rx="1" transform="translate(399.505 330.243)" fill="#4e4e4e"/>
      <path id="Path_4" data-name="Path 4" d="M222.95,298.339h170v13.446a4,4,0,0,1-4,4h-162a4,4,0,0,1-4-4V298.339Z" fill="#4e4e4e"/>
      <path id="Path_5" data-name="Path 5" d="M388.95,311.784h-162a4,4,0,0,1-4-4v4a4,4,0,0,0,4,4h162a4,4,0,0,0,4-4v-4A4,4,0,0,1,388.95,311.784Z" fill="#4e4e4e" opacity="0.25"/>
      <path id="Path_6" data-name="Path 6" d="M222.95,298.339h170v13.446a4,4,0,0,1-4,4h-162a4,4,0,0,1-4-4V298.339Z" fill="#4e4e4e" stroke="#46505c" stroke-linecap="round" stroke-linejoin="round" stroke-width="2"/>
      <rect id="Rectangle_85" data-name="Rectangle 85" width="74" height="51" rx="2" transform="translate(270.951 417.743)" fill="#4e4e4e"/>
      <rect id="Rectangle_86" data-name="Rectangle 86" width="74" height="51" rx="2" transform="translate(270.951 417.743)" fill="#4e4e4e" stroke="#626c84" stroke-linecap="round" stroke-linejoin="round" stroke-width="1"/>
    </g>
    <rect id="Rectangle_87" data-name="Rectangle 87" width="260" height="164" rx="14" transform="translate(170 133.904)" fill="none" stroke="#000" stroke-linecap="round" stroke-linejoin="round" stroke-width="1"/>
    <rect id="Rectangle_88" data-name="Rectangle 88" width="260" height="164" rx="14" transform="translate(170 133.904)" fill="#626c84"/>
    <rect id="Rectangle_89" data-name="Rectangle 89" width="260" height="164" rx="14" transform="translate(170 133.904)" fill="#626c84"/>
    <rect id="Rectangle_90" data-name="Rectangle 90" width="260" height="155.016" rx="14" transform="translate(170 133.904)" fill="#626c84" opacity="0.17"/>
    <path id="Path_14" data-name="Path 14" d="M184,137.9H416a14,14,0,0,1,14,14v132h0v-136a14,14,0,0,0-14-14H184a14,14,0,0,0-14,14v4a14,14,0,0,1,14-14Z" fill="#fff" opacity="0.1"/>
    <g id="Group_4" data-name="Group 4" opacity="0.1">
      <path id="Path_15" data-name="Path 15" d="M249.227,297.9H265.3l119.153-164H368.38Z" fill="#fff"/>
      <path id="Path_16" data-name="Path 16" d="M274.566,297.9h4.944l119.154-164h-4.945Z" fill="#fff"/>
    </g>
    <rect id="Rectangle_91" data-name="Rectangle 91" width="260" height="164" rx="14" transform="translate(170 133.904)" fill="none" stroke="#46505c" stroke-linecap="round" stroke-linejoin="round" stroke-width="4"/>
    <rect id="Rectangle_92" data-name="Rectangle 92" width="126" height="224" transform="translate(412 152.384) rotate(90)" fill="#404756"/>
    <g id="Group_5" data-name="Group 5" opacity="0.06">
      <path id="Path_17" data-name="Path 17" d="M264.409,278.384h16.069l91.544-126H355.953Z" fill="#fff"/>
      <path id="Path_18" data-name="Path 18" d="M289.748,278.384h4.945l91.544-126h-4.944Z" fill="#fff"/>
    </g>
    <rect id="Rectangle_93" data-name="Rectangle 93" width="126" height="224" transform="translate(412 152.384) rotate(90)" fill="none" stroke="#46505c" stroke-linecap="round" stroke-linejoin="round" stroke-width="1"/>
    <rect id="Rectangle_94" data-name="Rectangle 94" width="260" height="172" rx="14" transform="translate(170 297.904)" fill="#e6f3ff"/>
    <rect id="Rectangle_95" data-name="Rectangle 95" width="164" height="252" rx="10" transform="translate(426 301.904) rotate(90)" fill="#fff" stroke="#e6f3ff" stroke-miterlimit="10" stroke-width="2"/>
    <path id="Path_19" data-name="Path 19" d="M283.949,462.084h32.1a4,4,0,0,1,4,4v3.82h-40.1v-3.82A4,4,0,0,1,283.949,462.084Z" fill="#e6f3ff"/>
    <rect id="Rectangle_96" data-name="Rectangle 96" width="260" height="172" rx="14" transform="translate(170 297.904)" fill="none" stroke="#46505c" stroke-linecap="round" stroke-linejoin="round" stroke-width="4"/>
    <rect id="Rectangle_97" data-name="Rectangle 97" width="230" height="92" rx="3" transform="translate(185 311.323)" fill="#e6f3ff"/>
    <rect id="Rectangle_98" data-name="Rectangle 98" width="14" height="14" rx="1" transform="translate(216.084 380.823)" fill="none" stroke="#626c84" stroke-linecap="round" stroke-linejoin="round" stroke-width="1"/>
    <rect id="Rectangle_99" data-name="Rectangle 99" width="14" height="14" rx="1" transform="translate(194.446 380.823)" fill="none" stroke="#626c84" stroke-linecap="round" stroke-linejoin="round" stroke-width="1"/>
    <rect id="Rectangle_100" data-name="Rectangle 100" width="100.554" height="14" rx="1" transform="translate(237.723 380.823)" fill="none" stroke="#626c84" stroke-linecap="round" stroke-linejoin="round" stroke-width="1"/>
    <rect id="Rectangle_101" data-name="Rectangle 101" width="14" height="14" rx="1" transform="translate(345.916 380.823)" fill="none" stroke="#626c84" stroke-linecap="round" stroke-linejoin="round" stroke-width="1"/>
    <rect id="Rectangle_102" data-name="Rectangle 102" width="10" height="6.125" rx="1" transform="translate(381.554 388.698)" fill="none" stroke="#626c84" stroke-linecap="round" stroke-linejoin="round" stroke-width="1"/>
    <rect id="Rectangle_103" data-name="Rectangle 103" width="10" height="6.125" rx="1" transform="translate(381.554 380.823)" fill="none" stroke="#626c84" stroke-linecap="round" stroke-linejoin="round" stroke-width="1"/>
    <rect id="Rectangle_104" data-name="Rectangle 104" width="10" height="6.125" rx="1" transform="translate(395.554 388.698)" fill="none" stroke="#626c84" stroke-linecap="round" stroke-linejoin="round" stroke-width="1"/>
    <rect id="Rectangle_105" data-name="Rectangle 105" width="10" height="6.125" rx="1" transform="translate(367.554 388.698)" fill="none" stroke="#626c84" stroke-linecap="round" stroke-linejoin="round" stroke-width="1"/>
    <rect id="Rectangle_106" data-name="Rectangle 106" width="33.639" height="14" rx="1" transform="translate(194.446 360.904)" fill="none" stroke="#626c84" stroke-linecap="round" stroke-linejoin="round" stroke-width="1"/>
    <rect id="Rectangle_107" data-name="Rectangle 107" width="14" height="14" rx="1" transform="translate(235.904 360.904)" fill="none" stroke="#626c84" stroke-linecap="round" stroke-linejoin="round" stroke-width="1"/>
    <rect id="Rectangle_108" data-name="Rectangle 108" width="14" height="14" rx="1" transform="translate(257.542 360.904)" fill="none" stroke="#626c84" stroke-linecap="round" stroke-linejoin="round" stroke-width="1"/>
    <rect id="Rectangle_109" data-name="Rectangle 109" width="14" height="14" rx="1" transform="translate(279.181 360.904)" fill="none" stroke="#626c84" stroke-linecap="round" stroke-linejoin="round" stroke-width="1"/>
    <rect id="Rectangle_110" data-name="Rectangle 110" width="14" height="14" rx="1" transform="translate(300.819 360.904)" fill="none" stroke="#626c84" stroke-linecap="round" stroke-linejoin="round" stroke-width="1"/>
    <rect id="Rectangle_111" data-name="Rectangle 111" width="14" height="14" rx="1" transform="translate(322.458 360.904)" fill="none" stroke="#626c84" stroke-linecap="round" stroke-linejoin="round" stroke-width="1"/>
    <rect id="Rectangle_112" data-name="Rectangle 112" width="14" height="14" rx="1" transform="translate(344.096 360.904)" fill="none" stroke="#626c84" stroke-linecap="round" stroke-linejoin="round" stroke-width="1"/>
    <rect id="Rectangle_113" data-name="Rectangle 113" width="38" height="14" rx="1" transform="translate(367.554 360.904)" fill="none" stroke="#626c84" stroke-linecap="round" stroke-linejoin="round" stroke-width="1"/>
    <rect id="Rectangle_114" data-name="Rectangle 114" width="14" height="14" rx="1" transform="translate(228.084 340.424)" fill="none" stroke="#626c84" stroke-linecap="round" stroke-linejoin="round" stroke-width="1"/>
    <rect id="Rectangle_115" data-name="Rectangle 115" width="26" height="14" rx="1" transform="translate(194.446 340.424)" fill="none" stroke="#626c84" stroke-linecap="round" stroke-linejoin="round" stroke-width="1"/>
    <rect id="Rectangle_116" data-name="Rectangle 116" width="14" height="14" rx="1" transform="translate(249.723 340.424)" fill="none" stroke="#626c84" stroke-linecap="round" stroke-linejoin="round" stroke-width="1"/>
    <rect id="Rectangle_117" data-name="Rectangle 117" width="14" height="14" rx="1" transform="translate(271.361 340.424)" fill="none" stroke="#626c84" stroke-linecap="round" stroke-linejoin="round" stroke-width="1"/>
    <rect id="Rectangle_118" data-name="Rectangle 118" width="14" height="14" rx="1" transform="translate(293 340.424)" fill="none" stroke="#626c84" stroke-linecap="round" stroke-linejoin="round" stroke-width="1"/>
    <rect id="Rectangle_119" data-name="Rectangle 119" width="14" height="14" rx="1" transform="translate(314.639 340.424)" fill="none" stroke="#626c84" stroke-linecap="round" stroke-linejoin="round" stroke-width="1"/>
    <rect id="Rectangle_120" data-name="Rectangle 120" width="14" height="14" rx="1" transform="translate(336.277 340.424)" fill="none" stroke="#626c84" stroke-linecap="round" stroke-linejoin="round" stroke-width="1"/>
    <rect id="Rectangle_121" data-name="Rectangle 121" width="14" height="14" rx="1" transform="translate(357.916 340.424)" fill="none" stroke="#626c84" stroke-linecap="round" stroke-linejoin="round" stroke-width="1"/>
    <rect id="Rectangle_122" data-name="Rectangle 122" width="26" height="14" rx="1" transform="translate(379.554 340.424)" fill="none" stroke="#626c84" stroke-linecap="round" stroke-linejoin="round" stroke-width="1"/>
    <rect id="Rectangle_123" data-name="Rectangle 123" width="14" height="14" rx="1" transform="translate(216.347 320.823)" fill="none" stroke="#626c84" stroke-linecap="round" stroke-linejoin="round" stroke-width="1"/>
    <rect id="Rectangle_124" data-name="Rectangle 124" width="14" height="14" rx="1" transform="translate(194.446 320.823)" fill="none" stroke="#626c84" stroke-linecap="round" stroke-linejoin="round" stroke-width="1"/>
    <rect id="Rectangle_125" data-name="Rectangle 125" width="14" height="14" rx="1" transform="translate(238.248 320.823)" fill="none" stroke="#626c84" stroke-linecap="round" stroke-linejoin="round" stroke-width="1"/>
    <rect id="Rectangle_126" data-name="Rectangle 126" width="14" height="14" rx="1" transform="translate(260.149 320.823)" fill="none" stroke="#626c84" stroke-linecap="round" stroke-linejoin="round" stroke-width="1"/>
    <rect id="Rectangle_127" data-name="Rectangle 127" width="14" height="14" rx="1" transform="translate(282.05 320.823)" fill="none" stroke="#626c84" stroke-linecap="round" stroke-linejoin="round" stroke-width="1"/>
    <rect id="Rectangle_128" data-name="Rectangle 128" width="14" height="14" rx="1" transform="translate(303.95 320.823)" fill="none" stroke="#626c84" stroke-linecap="round" stroke-linejoin="round" stroke-width="1"/>
    <rect id="Rectangle_129" data-name="Rectangle 129" width="14" height="14" rx="1" transform="translate(325.851 320.823)" fill="none" stroke="#626c84" stroke-linecap="round" stroke-linejoin="round" stroke-width="1"/>
    <rect id="Rectangle_130" data-name="Rectangle 130" width="14" height="14" rx="1" transform="translate(347.752 320.823)" fill="none" stroke="#626c84" stroke-linecap="round" stroke-linejoin="round" stroke-width="1"/>
    <rect id="Rectangle_131" data-name="Rectangle 131" width="14" height="14" rx="1" transform="translate(369.653 320.823)" fill="none" stroke="#626c84" stroke-linecap="round" stroke-linejoin="round" stroke-width="1"/>
    <rect id="Rectangle_132" data-name="Rectangle 132" width="14" height="14" rx="1" transform="translate(391.554 320.823)" fill="none" stroke="#626c84" stroke-linecap="round" stroke-linejoin="round" stroke-width="1"/>
    <rect id="Rectangle_133" data-name="Rectangle 133" width="14" height="14" rx="1" transform="translate(216.084 380.823)" fill="#626c84"/>
    <rect id="Rectangle_134" data-name="Rectangle 134" width="14" height="14" rx="1" transform="translate(194.446 380.823)" fill="#626c84"/>
    <rect id="Rectangle_135" data-name="Rectangle 135" width="100.554" height="14" rx="1" transform="translate(237.723 380.823)" fill="#626c84"/>
    <rect id="Rectangle_136" data-name="Rectangle 136" width="14" height="14" rx="1" transform="translate(345.916 380.823)" fill="#626c84"/>
    <rect id="Rectangle_137" data-name="Rectangle 137" width="10" height="6.125" rx="1" transform="translate(381.554 388.698)" fill="#626c84"/>
    <rect id="Rectangle_138" data-name="Rectangle 138" width="10" height="6.125" rx="1" transform="translate(381.554 380.823)" fill="#626c84"/>
    <rect id="Rectangle_139" data-name="Rectangle 139" width="10" height="6.125" rx="1" transform="translate(395.554 388.698)" fill="#626c84"/>
    <rect id="Rectangle_140" data-name="Rectangle 140" width="10" height="6.125" rx="1" transform="translate(367.554 388.698)" fill="#626c84"/>
    <rect id="Rectangle_141" data-name="Rectangle 141" width="33.639" height="14" rx="1" transform="translate(194.446 360.904)" fill="#626c84"/>
    <rect id="Rectangle_142" data-name="Rectangle 142" width="14" height="14" rx="1" transform="translate(235.904 360.904)" fill="#626c84"/>
    <rect id="Rectangle_143" data-name="Rectangle 143" width="14" height="14" rx="1" transform="translate(257.542 360.904)" fill="#626c84"/>
    <rect id="Rectangle_144" data-name="Rectangle 144" width="14" height="14" rx="1" transform="translate(279.181 360.904)" fill="#626c84"/>
    <rect id="Rectangle_145" data-name="Rectangle 145" width="14" height="14" rx="1" transform="translate(300.819 360.904)" fill="#626c84"/>
    <rect id="Rectangle_146" data-name="Rectangle 146" width="14" height="14" rx="1" transform="translate(322.458 360.904)" fill="#626c84"/>
    <rect id="Rectangle_147" data-name="Rectangle 147" width="14" height="14" rx="1" transform="translate(344.096 360.904)" fill="#626c84"/>
    <rect id="Rectangle_148" data-name="Rectangle 148" width="38" height="14" rx="1" transform="translate(367.554 360.904)" fill="#626c84"/>
    <rect id="Rectangle_149" data-name="Rectangle 149" width="14" height="14" rx="1" transform="translate(228.084 340.424)" fill="#626c84"/>
    <rect id="Rectangle_150" data-name="Rectangle 150" width="26" height="14" rx="1" transform="translate(194.446 340.424)" fill="#626c84"/>
    <rect id="Rectangle_151" data-name="Rectangle 151" width="14" height="14" rx="1" transform="translate(249.723 340.424)" fill="#626c84"/>
    <rect id="Rectangle_152" data-name="Rectangle 152" width="14" height="14" rx="1" transform="translate(271.361 340.424)" fill="#626c84"/>
    <rect id="Rectangle_153" data-name="Rectangle 153" width="14" height="14" rx="1" transform="translate(293 340.424)" fill="#626c84"/>
    <rect id="Rectangle_154" data-name="Rectangle 154" width="14" height="14" rx="1" transform="translate(314.639 340.424)" fill="#626c84"/>
    <rect id="Rectangle_155" data-name="Rectangle 155" width="14" height="14" rx="1" transform="translate(336.277 340.424)" fill="#626c84"/>
    <rect id="Rectangle_156" data-name="Rectangle 156" width="14" height="14" rx="1" transform="translate(357.916 340.424)" fill="#626c84"/>
    <rect id="Rectangle_157" data-name="Rectangle 157" width="26" height="14" rx="1" transform="translate(379.554 340.424)" fill="#626c84"/>
    <rect id="Rectangle_158" data-name="Rectangle 158" width="14" height="14" rx="1" transform="translate(216.347 320.823)" fill="#626c84"/>
    <rect id="Rectangle_159" data-name="Rectangle 159" width="14" height="14" rx="1" transform="translate(194.446 320.823)" fill="#626c84"/>
    <rect id="Rectangle_160" data-name="Rectangle 160" width="14" height="14" rx="1" transform="translate(238.248 320.823)" fill="#626c84"/>
    <rect id="Rectangle_161" data-name="Rectangle 161" width="14" height="14" rx="1" transform="translate(260.149 320.823)" fill="#626c84"/>
    <rect id="Rectangle_162" data-name="Rectangle 162" width="14" height="14" rx="1" transform="translate(282.05 320.823)" fill="#626c84"/>
    <rect id="Rectangle_163" data-name="Rectangle 163" width="14" height="14" rx="1" transform="translate(303.95 320.823)" fill="#626c84"/>
    <rect id="Rectangle_164" data-name="Rectangle 164" width="14" height="14" rx="1" transform="translate(325.851 320.823)" fill="#626c84"/>
    <rect id="Rectangle_165" data-name="Rectangle 165" width="14" height="14" rx="1" transform="translate(347.752 320.823)" fill="#626c84"/>
    <rect id="Rectangle_166" data-name="Rectangle 166" width="14" height="14" rx="1" transform="translate(369.653 320.823)" fill="#626c84"/>
    <rect id="Rectangle_167" data-name="Rectangle 167" width="14" height="14" rx="1" transform="translate(391.554 320.823)" fill="#626c84"/>
    <path id="Path_20" data-name="Path 20" d="M215,288.92H385v13.446a4,4,0,0,1-4,4H219a4,4,0,0,1-4-4Z" fill="#626c84"/>
    <rect id="Rectangle_168" data-name="Rectangle 168" width="170" height="2" transform="translate(215 288.92)" fill="#fff" opacity="0.12"/>
    <path id="Path_21" data-name="Path 21" d="M381,302.365H219a4,4,0,0,1-4-4v4a4,4,0,0,0,4,4H381a4,4,0,0,0,4-4v-4A4,4,0,0,1,381,302.365Z" fill="#626c84" opacity="0.25"/>
    <path id="Path_22" data-name="Path 22" d="M215,288.92H385v13.446a4,4,0,0,1-4,4H219a4,4,0,0,1-4-4Z" fill="none" stroke="#46505c" stroke-linecap="round" stroke-linejoin="round" stroke-width="2"/>
    <rect id="Rectangle_169" data-name="Rectangle 169" width="74" height="51" rx="2" transform="translate(263 408.323)" fill="#e6f3ff"/>
    <rect id="Rectangle_170" data-name="Rectangle 170" width="74" height="51" rx="2" transform="translate(263 408.323)" fill="none" stroke="#626c84" stroke-linecap="round" stroke-linejoin="round" stroke-width="1"/>
    <circle id="Ellipse_31" data-name="Ellipse 31" cx="3" cy="3" r="3" transform="translate(297 141.052)" fill="#fff" opacity="0.52"/>
    <circle id="Ellipse_32" data-name="Ellipse 32" cx="3" cy="3" r="3" transform="translate(297 141.052)" fill="none" stroke="#46505c" stroke-linecap="round" stroke-linejoin="round" stroke-width="1"/>
    <rect id="Rectangle_171" data-name="Rectangle 171" width="14" height="2" rx="1" transform="translate(349.36 165.129)" fill="#fff"/>
    <rect id="Rectangle_172" data-name="Rectangle 172" width="14" height="2" rx="1" transform="translate(375.334 165.129)" fill="#fff"/>
    <rect id="Rectangle_173" data-name="Rectangle 173" width="14" height="2" rx="1" transform="translate(323.387 165.129)" fill="#fff"/>
    <circle id="Ellipse_33" data-name="Ellipse 33" cx="4.837" cy="4.837" r="4.837" transform="translate(202.396 161.813)" fill="#fff"/>
    <g id="Group_6" data-name="Group 6" opacity="0.72">
      <rect id="Rectangle_174" data-name="Rectangle 174" width="101.234" height="3.645" transform="translate(249.324 219.611)" fill="#fff"/>
      <rect id="Rectangle_175" data-name="Rectangle 175" width="75.629" height="3.698" transform="translate(262.127 207.513)" fill="#fff"/>
    </g>
    <rect id="Rectangle_176" data-name="Rectangle 176" width="39.773" height="10.962" rx="5.481" transform="translate(283.113 247.945)" fill="none" stroke="#fff" stroke-miterlimit="10" stroke-width="1"/>
  </g>
</svg>
